<svg width="240" height="1640" viewBox="0 0 240 1640" class="keymap" xmlns="http://www.w3.org/2000/svg" xmlns:xlink="http://www.w3.org/1999/xlink">
<style>/* inherit to force styles through use tags */
svg path {
    fill: inherit;
}

/* font and background color specifications */
svg.keymap {
    font-family: SFMono-Regular,Consolas,Liberation Mono,Menlo,monospace;
    font-size: 14px;
    font-kerning: normal;
    text-rendering: optimizeLegibility;
    fill: #24292e;
}

/* default key styling */
rect.key {
    fill: #f6f8fa;
}

rect.key, rect.combo {
    stroke: #c9cccf;
    stroke-width: 1;
}

/* default key side styling, only used is draw_key_sides is set */
rect.side {
    filter: brightness(90%);
}

/* color accent for combo boxes */
rect.combo, rect.combo-separate {
    fill: #cdf;
}

/* color accent for held keys */
rect.held, rect.combo.held {
    fill: #fdd;
}

/* color accent for ghost (optional) keys */
rect.ghost, rect.combo.ghost {
    stroke-dasharray: 4, 4;
    stroke-width: 2;
}

text {
    text-anchor: middle;
    dominant-baseline: middle;
}

/* styling for layer labels */
text.label {
    font-weight: bold;
    text-anchor: start;
    stroke: white;
    stroke-width: 4;
    paint-order: stroke;
}

/* styling for optional footer */
text.footer {
    text-anchor: end;
    dominant-baseline: auto;
    stroke: white;
    stroke-width: 4;
    paint-order: stroke;
}

/* styling for combo tap, and key non-tap label text */
text.combo, text.hold, text.shifted, text.left, text.right {
    font-size: 11px;
}

text.hold {
    text-anchor: middle;
    dominant-baseline: auto;
}

text.shifted {
    text-anchor: middle;
    dominant-baseline: hanging;
}

text.left {
    text-anchor: start;
}

text.right {
    text-anchor: end;
}

text.layer-activator {
    text-decoration: underline;
}

/* styling for hold/shifted label text in combo box */
text.combo.hold, text.combo.shifted, text.combo.left, text.combo.right {
    font-size: 8px;
}

/* lighter symbol for transparent keys */
text.trans {
    fill: #7b7e81;
}

/* styling for combo dendrons */
path.combo {
    stroke-width: 1;
    stroke: gray;
    fill: none;
}

/* Start Tabler Icons Cleanup */
/* cannot use height/width with glyphs */
.icon-tabler > path {
    fill: inherit;
    stroke: inherit;
    stroke-width: 2;
}
/* hide tabler's default box */
.icon-tabler > path[stroke="none"][fill="none"] {
    visibility: hidden;
}
/* End Tabler Icons Cleanup */
</style>
<g transform="translate(30, 0)" class="layer-BASE">
<text x="0" y="28" class="label" id="BASE">BASE:</text>
<g transform="translate(0, 56)">
<g transform="translate(150, 90)" class="key keypos-0">
<rect rx="6" ry="6" x="-28" y="-28" width="56" height="56" class="key"/>
<text x="0" y="0" class="key tap">ENTER</text>
</g>
<g transform="translate(90, 90)" class="key keypos-1">
<rect rx="6" ry="6" x="-28" y="-28" width="56" height="56" class="key"/>
<text x="0" y="0" class="key tap">
<tspan x="0" dy="-0.6em">&amp;mkp</tspan><tspan x="0" dy="1.2em">LCLK</tspan>
</text>
</g>
<g transform="translate(30, 90)" class="key keypos-2">
<rect rx="6" ry="6" x="-28" y="-28" width="56" height="56" class="key"/>
<text x="0" y="0" class="key tap">SPACE</text>
<a href="#Scroll_L0-">
<text x="0" y="26" class="key hold layer-activator"><tspan style="font-size: 70%">Scroll_L0 </tspan></text>
</a></g>
<g transform="translate(150, 30)" class="key keypos-3">
<rect rx="6" ry="6" x="-28" y="-28" width="56" height="56" class="key"/>
<text x="0" y="0" class="key tap">
<tspan x="0" dy="-0.6em">&amp;mkp</tspan><tspan x="0" dy="1.2em">RCLK</tspan>
</text>
</g>
<g transform="translate(90, 30)" class="key keypos-4">
<rect rx="6" ry="6" x="-28" y="-28" width="56" height="56" class="key"/>
<text x="0" y="0" class="key tap">
<tspan x="0" dy="-0.6em">&amp;mkp</tspan><tspan x="0" dy="1.2em">LCLK</tspan>
</text>
</g>
<g transform="translate(30, 30)" class="key keypos-5">
<rect rx="6" ry="6" x="-28" y="-28" width="56" height="56" class="key"/>
<text x="0" y="0" class="key tap"><tspan style="font-size: 78%">BACKSPACE</tspan></text>
<text x="0" y="26" class="key hold"><tspan style="font-size: 64%">RIGHT CONT…</tspan></text>
</g>
<g class="combo combopos-0">
<path d="M90,50 l-41,-14" class="combo"/>
<path d="M90,50 l43,29" class="combo"/>
<rect rx="6" ry="6" x="76" y="37" width="28" height="26" class="combo"/>
<a href="#BASE">
<text x="90" y="50" class="combo tap layer-activator">BASE</text>
</a><text x="90" y="61" class="combo hold">toggle</text>
</g>
<g class="combo combopos-1">
<path d="M90,50 l41,-14" class="combo"/>
<path d="M90,50 l-43,29" class="combo"/>
<rect rx="6" ry="6" x="76" y="37" width="28" height="26" class="combo"/>
<a href="#ROT_90">
<text x="90" y="50" class="combo tap layer-activator">ROT_90</text>
</a><text x="90" y="61" class="combo hold">toggle</text>
</g>
<g class="combo combopos-2">
<path d="M90,70 l-41,14" class="combo"/>
<path d="M90,70 l43,-29" class="combo"/>
<rect rx="6" ry="6" x="76" y="57" width="28" height="26" class="combo"/>
<a href="#ROT_180">
<text x="90" y="70" class="combo tap layer-activator">ROT_180</text>
</a><text x="90" y="81" class="combo hold">toggle</text>
</g>
<g class="combo combopos-3">
<path d="M90,70 l41,14" class="combo"/>
<path d="M90,70 l-43,-29" class="combo"/>
<rect rx="6" ry="6" x="76" y="57" width="28" height="26" class="combo"/>
<a href="#ROT_270">
<text x="90" y="70" class="combo tap layer-activator">ROT_270</text>
</a><text x="90" y="81" class="combo hold">toggle</text>
</g>
</g>
</g>
<g transform="translate(30, 176)" class="layer-ROT_90">
<text x="0" y="28" class="label" id="ROT_90">ROT_90:</text>
<g transform="translate(0, 56)">
<g transform="translate(150, 90)" class="key keypos-0">
<rect rx="6" ry="6" x="-28" y="-28" width="56" height="56" class="key"/>
<text x="0" y="0" class="key tap">
<tspan x="0" dy="-0.6em">&amp;mkp</tspan><tspan x="0" dy="1.2em">RCLK</tspan>
</text>
</g>
<g transform="translate(90, 90)" class="key keypos-1">
<rect rx="6" ry="6" x="-28" y="-28" width="56" height="56" class="key"/>
<text x="0" y="0" class="key tap"><tspan style="font-size: 78%">BACKSPACE</tspan></text>
<text x="0" y="26" class="key hold">RCTRL</text>
</g>
<g transform="translate(30, 90)" class="key keypos-2">
<rect rx="6" ry="6" x="-28" y="-28" width="56" height="56" class="key"/>
<text x="0" y="0" class="key tap">ENTER</text>
</g>
<g transform="translate(150, 30)" class="key keypos-3">
<rect rx="6" ry="6" x="-28" y="-28" width="56" height="56" class="key"/>
<text x="0" y="0" class="key tap">SPACE</text>
<a href="#Scroll_L90">
<text x="0" y="26" class="key hold layer-activator"><tspan style="font-size: 70%">Scroll_L90</tspan></text>
</a></g>
<g transform="translate(90, 30)" class="key keypos-4">
<rect rx="6" ry="6" x="-28" y="-28" width="56" height="56" class="key"/>
<text x="0" y="0" class="key tap">
<tspan x="0" dy="-0.6em">&amp;mkp</tspan><tspan x="0" dy="1.2em">LCLK</tspan>
</text>
</g>
<g transform="translate(30, 30)" class="key keypos-5">
<rect rx="6" ry="6" x="-28" y="-28" width="56" height="56" class="key"/>
<text x="0" y="0" class="key tap">
<tspan x="0" dy="-0.6em">&amp;mkp</tspan><tspan x="0" dy="1.2em">LCLK</tspan>
</text>
</g>
<g class="combo combopos-0">
<path d="M90,50 l-41,-14" class="combo"/>
<path d="M90,50 l43,29" class="combo"/>
<rect rx="6" ry="6" x="76" y="37" width="28" height="26" class="combo"/>
<a href="#BASE">
<text x="90" y="50" class="combo tap layer-activator">BASE</text>
</a><text x="90" y="61" class="combo hold">toggle</text>
</g>
<g class="combo combopos-1">
<path d="M90,50 l41,-14" class="combo"/>
<path d="M90,50 l-43,29" class="combo"/>
<rect rx="6" ry="6" x="76" y="37" width="28" height="26" class="combo"/>
<a href="#ROT_90">
<text x="90" y="50" class="combo tap layer-activator">ROT_90</text>
</a><text x="90" y="61" class="combo hold">toggle</text>
</g>
<g class="combo combopos-2">
<path d="M90,70 l-41,14" class="combo"/>
<path d="M90,70 l43,-29" class="combo"/>
<rect rx="6" ry="6" x="76" y="57" width="28" height="26" class="combo"/>
<a href="#ROT_180">
<text x="90" y="70" class="combo tap layer-activator">ROT_180</text>
</a><text x="90" y="81" class="combo hold">toggle</text>
</g>
<g class="combo combopos-3">
<path d="M90,70 l41,14" class="combo"/>
<path d="M90,70 l-43,-29" class="combo"/>
<rect rx="6" ry="6" x="76" y="57" width="28" height="26" class="combo"/>
<a href="#ROT_270">
<text x="90" y="70" class="combo tap layer-activator">ROT_270</text>
</a><text x="90" y="81" class="combo hold">toggle</text>
</g>
</g>
</g>
<g transform="translate(30, 352)" class="layer-ROT_180">
<text x="0" y="28" class="label" id="ROT_180">ROT_180:</text>
<g transform="translate(0, 56)">
<g transform="translate(150, 90)" class="key keypos-0">
<rect rx="6" ry="6" x="-28" y="-28" width="56" height="56" class="key"/>
<text x="0" y="0" class="key tap">
<tspan x="0" dy="-0.6em">&amp;mkp</tspan><tspan x="0" dy="1.2em">LCLK</tspan>
</text>
</g>
<g transform="translate(90, 90)" class="key keypos-1">
<rect rx="6" ry="6" x="-28" y="-28" width="56" height="56" class="key"/>
<text x="0" y="0" class="key tap">
<tspan x="0" dy="-0.6em">&amp;mkp</tspan><tspan x="0" dy="1.2em">MB2</tspan>
</text>
</g>
<g transform="translate(30, 90)" class="key keypos-2">
<rect rx="6" ry="6" x="-28" y="-28" width="56" height="56" class="key"/>
<text x="0" y="0" class="key tap">
<tspan x="0" dy="-1.2em" style="font-size: 78%">Gui+</tspan><tspan x="0" dy="1.2em" style="font-size: 78%">BACKSPACE</tspan>
</text>
<text x="0" y="26" class="key hold"><tspan style="font-size: 64%">RIGHT CONT…</tspan></text>
</g>
<g transform="translate(150, 30)" class="key keypos-3">
<rect rx="6" ry="6" x="-28" y="-28" width="56" height="56" class="key"/>
<text x="0" y="0" class="key tap">
<tspan x="0" dy="-0.6em">&amp;mkp</tspan><tspan x="0" dy="1.2em">LCLK</tspan>
</text>
</g>
<g transform="translate(90, 30)" class="key keypos-4">
<rect rx="6" ry="6" x="-28" y="-28" width="56" height="56" class="key"/>
<text x="0" y="0" class="key tap">SPACE</text>
<a href="#Scroll_L180">
<text x="0" y="26" class="key hold layer-activator"><tspan style="font-size: 64%">Scroll_L180</tspan></text>
</a></g>
<g transform="translate(30, 30)" class="key keypos-5">
<rect rx="6" ry="6" x="-28" y="-28" width="56" height="56" class="key"/>
<text x="0" y="0" class="key tap">
<tspan x="0" dy="-0.6em">&amp;mkp</tspan><tspan x="0" dy="1.2em">MCLK</tspan>
</text>
</g>
<g class="combo combopos-0">
<path d="M90,50 l-41,-14" class="combo"/>
<path d="M90,50 l43,29" class="combo"/>
<rect rx="6" ry="6" x="76" y="37" width="28" height="26" class="combo"/>
<a href="#BASE">
<text x="90" y="50" class="combo tap layer-activator">BASE</text>
</a><text x="90" y="61" class="combo hold">toggle</text>
</g>
<g class="combo combopos-1">
<path d="M90,50 l41,-14" class="combo"/>
<path d="M90,50 l-43,29" class="combo"/>
<rect rx="6" ry="6" x="76" y="37" width="28" height="26" class="combo"/>
<a href="#ROT_90">
<text x="90" y="50" class="combo tap layer-activator">ROT_90</text>
</a><text x="90" y="61" class="combo hold">toggle</text>
</g>
<g class="combo combopos-2">
<path d="M90,70 l-41,14" class="combo"/>
<path d="M90,70 l43,-29" class="combo"/>
<rect rx="6" ry="6" x="76" y="57" width="28" height="26" class="combo"/>
<a href="#ROT_180">
<text x="90" y="70" class="combo tap layer-activator">ROT_180</text>
</a><text x="90" y="81" class="combo hold">toggle</text>
</g>
<g class="combo combopos-3">
<path d="M90,70 l41,14" class="combo"/>
<path d="M90,70 l-43,-29" class="combo"/>
<rect rx="6" ry="6" x="76" y="57" width="28" height="26" class="combo"/>
<a href="#ROT_270">
<text x="90" y="70" class="combo tap layer-activator">ROT_270</text>
</a><text x="90" y="81" class="combo hold">toggle</text>
</g>
</g>
</g>
<g transform="translate(30, 528)" class="layer-ROT_270">
<text x="0" y="28" class="label" id="ROT_270">ROT_270:</text>
<g transform="translate(0, 56)">
<g transform="translate(150, 90)" class="key keypos-0">
<rect rx="6" ry="6" x="-28" y="-28" width="56" height="56" class="key"/>
<text x="0" y="0" class="key tap">
<tspan x="0" dy="-0.6em">&amp;mkp</tspan><tspan x="0" dy="1.2em">RCLK</tspan>
</text>
</g>
<g transform="translate(90, 90)" class="key keypos-1">
<rect rx="6" ry="6" x="-28" y="-28" width="56" height="56" class="key"/>
<text x="0" y="0" class="key tap"><tspan style="font-size: 78%">BACKSPACE</tspan></text>
<text x="0" y="26" class="key hold">RCTRL</text>
</g>
<g transform="translate(30, 90)" class="key keypos-2">
<rect rx="6" ry="6" x="-28" y="-28" width="56" height="56" class="key"/>
<text x="0" y="0" class="key tap">ENTER</text>
</g>
<g transform="translate(150, 30)" class="key keypos-3">
<rect rx="6" ry="6" x="-28" y="-28" width="56" height="56" class="key"/>
<text x="0" y="0" class="key tap">SPACE</text>
<a href="#Scroll_L270">
<text x="0" y="26" class="key hold layer-activator"><tspan style="font-size: 64%">Scroll_L270</tspan></text>
</a></g>
<g transform="translate(90, 30)" class="key keypos-4">
<rect rx="6" ry="6" x="-28" y="-28" width="56" height="56" class="key"/>
<text x="0" y="0" class="key tap">
<tspan x="0" dy="-0.6em">&amp;mkp</tspan><tspan x="0" dy="1.2em">LCLK</tspan>
</text>
</g>
<g transform="translate(30, 30)" class="key keypos-5">
<rect rx="6" ry="6" x="-28" y="-28" width="56" height="56" class="key"/>
<text x="0" y="0" class="key tap">
<tspan x="0" dy="-0.6em">&amp;mkp</tspan><tspan x="0" dy="1.2em">LCLK</tspan>
</text>
</g>
<g class="combo combopos-0">
<path d="M90,50 l-41,-14" class="combo"/>
<path d="M90,50 l43,29" class="combo"/>
<rect rx="6" ry="6" x="76" y="37" width="28" height="26" class="combo"/>
<a href="#BASE">
<text x="90" y="50" class="combo tap layer-activator">BASE</text>
</a><text x="90" y="61" class="combo hold">toggle</text>
</g>
<g class="combo combopos-1">
<path d="M90,50 l41,-14" class="combo"/>
<path d="M90,50 l-43,29" class="combo"/>
<rect rx="6" ry="6" x="76" y="37" width="28" height="26" class="combo"/>
<a href="#ROT_90">
<text x="90" y="50" class="combo tap layer-activator">ROT_90</text>
</a><text x="90" y="61" class="combo hold">toggle</text>
</g>
<g class="combo combopos-2">
<path d="M90,70 l-41,14" class="combo"/>
<path d="M90,70 l43,-29" class="combo"/>
<rect rx="6" ry="6" x="76" y="57" width="28" height="26" class="combo"/>
<a href="#ROT_180">
<text x="90" y="70" class="combo tap layer-activator">ROT_180</text>
</a><text x="90" y="81" class="combo hold">toggle</text>
</g>
<g class="combo combopos-3">
<path d="M90,70 l41,14" class="combo"/>
<path d="M90,70 l-43,-29" class="combo"/>
<rect rx="6" ry="6" x="76" y="57" width="28" height="26" class="combo"/>
<a href="#ROT_270">
<text x="90" y="70" class="combo tap layer-activator">ROT_270</text>
</a><text x="90" y="81" class="combo hold">toggle</text>
</g>
</g>
</g>
<g transform="translate(30, 704)" class="layer-Scroll_L0 ">
<text x="0" y="28" class="label" id="Scroll_L0-">Scroll_L0 :</text>
<g transform="translate(0, 56)">
<g transform="translate(150, 90)" class="key trans keypos-0">
<rect rx="6" ry="6" x="-28" y="-28" width="56" height="56" class="key trans"/>
<text x="0" y="0" class="key trans tap">▽</text>
</g>
<g transform="translate(90, 90)" class="key trans keypos-1">
<rect rx="6" ry="6" x="-28" y="-28" width="56" height="56" class="key trans"/>
<text x="0" y="0" class="key trans tap">▽</text>
</g>
<g transform="translate(30, 90)" class="key held keypos-2">
<rect rx="6" ry="6" x="-28" y="-28" width="56" height="56" class="key held"/>
<text x="0" y="0" class="key held tap">
<tspan x="0" dy="-0.6em">&amp;mkp</tspan><tspan x="0" dy="1.2em">MB4</tspan>
</text>
</g>
<g transform="translate(150, 30)" class="key trans keypos-3">
<rect rx="6" ry="6" x="-28" y="-28" width="56" height="56" class="key trans"/>
<text x="0" y="0" class="key trans tap">▽</text>
</g>
<g transform="translate(90, 30)" class="key trans keypos-4">
<rect rx="6" ry="6" x="-28" y="-28" width="56" height="56" class="key trans"/>
<text x="0" y="0" class="key trans tap">▽</text>
</g>
<g transform="translate(30, 30)" class="key keypos-5">
<rect rx="6" ry="6" x="-28" y="-28" width="56" height="56" class="key"/>
<text x="0" y="0" class="key tap">
<tspan x="0" dy="-0.6em">&amp;mkp</tspan><tspan x="0" dy="1.2em">MCLK</tspan>
</text>
</g>
<g class="combo combopos-0">
<path d="M90,50 l-41,-14" class="combo"/>
<path d="M90,50 l43,29" class="combo"/>
<rect rx="6" ry="6" x="76" y="37" width="28" height="26" class="combo"/>
<a href="#BASE">
<text x="90" y="50" class="combo tap layer-activator">BASE</text>
</a><text x="90" y="61" class="combo hold">toggle</text>
</g>
<g class="combo combopos-1">
<path d="M90,50 l41,-14" class="combo"/>
<path d="M90,50 l-43,29" class="combo"/>
<rect rx="6" ry="6" x="76" y="37" width="28" height="26" class="combo"/>
<a href="#ROT_90">
<text x="90" y="50" class="combo tap layer-activator">ROT_90</text>
</a><text x="90" y="61" class="combo hold">toggle</text>
</g>
<g class="combo combopos-2">
<path d="M90,70 l-41,14" class="combo"/>
<path d="M90,70 l43,-29" class="combo"/>
<rect rx="6" ry="6" x="76" y="57" width="28" height="26" class="combo"/>
<a href="#ROT_180">
<text x="90" y="70" class="combo tap layer-activator">ROT_180</text>
</a><text x="90" y="81" class="combo hold">toggle</text>
</g>
<g class="combo combopos-3">
<path d="M90,70 l41,14" class="combo"/>
<path d="M90,70 l-43,-29" class="combo"/>
<rect rx="6" ry="6" x="76" y="57" width="28" height="26" class="combo"/>
<a href="#ROT_270">
<text x="90" y="70" class="combo tap layer-activator">ROT_270</text>
</a><text x="90" y="81" class="combo hold">toggle</text>
</g>
</g>
</g>
<g transform="translate(30, 880)" class="layer-Scroll_L90">
<text x="0" y="28" class="label" id="Scroll_L90">Scroll_L90:</text>
<g transform="translate(0, 56)">
<g transform="translate(150, 90)" class="key trans keypos-0">
<rect rx="6" ry="6" x="-28" y="-28" width="56" height="56" class="key trans"/>
<text x="0" y="0" class="key trans tap">▽</text>
</g>
<g transform="translate(90, 90)" class="key trans keypos-1">
<rect rx="6" ry="6" x="-28" y="-28" width="56" height="56" class="key trans"/>
<text x="0" y="0" class="key trans tap">▽</text>
</g>
<g transform="translate(30, 90)" class="key trans keypos-2">
<rect rx="6" ry="6" x="-28" y="-28" width="56" height="56" class="key trans"/>
<text x="0" y="0" class="key trans tap">▽</text>
</g>
<g transform="translate(150, 30)" class="key held keypos-3">
<rect rx="6" ry="6" x="-28" y="-28" width="56" height="56" class="key held"/>
</g>
<g transform="translate(90, 30)" class="key trans keypos-4">
<rect rx="6" ry="6" x="-28" y="-28" width="56" height="56" class="key trans"/>
<text x="0" y="0" class="key trans tap">▽</text>
</g>
<g transform="translate(30, 30)" class="key trans keypos-5">
<rect rx="6" ry="6" x="-28" y="-28" width="56" height="56" class="key trans"/>
<text x="0" y="0" class="key trans tap">▽</text>
</g>
<g class="combo combopos-0">
<path d="M90,50 l-41,-14" class="combo"/>
<path d="M90,50 l43,29" class="combo"/>
<rect rx="6" ry="6" x="76" y="37" width="28" height="26" class="combo"/>
<a href="#BASE">
<text x="90" y="50" class="combo tap layer-activator">BASE</text>
</a><text x="90" y="61" class="combo hold">toggle</text>
</g>
<g class="combo combopos-1">
<path d="M90,50 l41,-14" class="combo"/>
<path d="M90,50 l-43,29" class="combo"/>
<rect rx="6" ry="6" x="76" y="37" width="28" height="26" class="combo"/>
<a href="#ROT_90">
<text x="90" y="50" class="combo tap layer-activator">ROT_90</text>
</a><text x="90" y="61" class="combo hold">toggle</text>
</g>
<g class="combo combopos-2">
<path d="M90,70 l-41,14" class="combo"/>
<path d="M90,70 l43,-29" class="combo"/>
<rect rx="6" ry="6" x="76" y="57" width="28" height="26" class="combo"/>
<a href="#ROT_180">
<text x="90" y="70" class="combo tap layer-activator">ROT_180</text>
</a><text x="90" y="81" class="combo hold">toggle</text>
</g>
<g class="combo combopos-3">
<path d="M90,70 l41,14" class="combo"/>
<path d="M90,70 l-43,-29" class="combo"/>
<rect rx="6" ry="6" x="76" y="57" width="28" height="26" class="combo"/>
<a href="#ROT_270">
<text x="90" y="70" class="combo tap layer-activator">ROT_270</text>
</a><text x="90" y="81" class="combo hold">toggle</text>
</g>
</g>
</g>
<g transform="translate(30, 1056)" class="layer-Scroll_L180">
<text x="0" y="28" class="label" id="Scroll_L180">Scroll_L180:</text>
<g transform="translate(0, 56)">
<g transform="translate(150, 90)" class="key trans keypos-0">
<rect rx="6" ry="6" x="-28" y="-28" width="56" height="56" class="key trans"/>
<text x="0" y="0" class="key trans tap">▽</text>
</g>
<g transform="translate(90, 90)" class="key trans keypos-1">
<rect rx="6" ry="6" x="-28" y="-28" width="56" height="56" class="key trans"/>
<text x="0" y="0" class="key trans tap">▽</text>
</g>
<g transform="translate(30, 90)" class="key trans keypos-2">
<rect rx="6" ry="6" x="-28" y="-28" width="56" height="56" class="key trans"/>
<text x="0" y="0" class="key trans tap">▽</text>
</g>
<g transform="translate(150, 30)" class="key trans keypos-3">
<rect rx="6" ry="6" x="-28" y="-28" width="56" height="56" class="key trans"/>
<text x="0" y="0" class="key trans tap">▽</text>
</g>
<g transform="translate(90, 30)" class="key held keypos-4">
<rect rx="6" ry="6" x="-28" y="-28" width="56" height="56" class="key held"/>
</g>
<g transform="translate(30, 30)" class="key trans keypos-5">
<rect rx="6" ry="6" x="-28" y="-28" width="56" height="56" class="key trans"/>
<text x="0" y="0" class="key trans tap">▽</text>
</g>
<g class="combo combopos-0">
<path d="M90,60 l-42,-21" class="combo"/>
<path d="M90,60 l42,21" class="combo"/>
<path d="M90,60 l42,-21" class="combo"/>
<path d="M90,60 l-42,21" class="combo"/>
<rect rx="6" ry="6" x="76" y="47" width="28" height="26" class="combo"/>
<a href="#SELECT_BT">
<text x="90" y="60" class="combo tap layer-activator"><tspan style="font-size: 78%">SELECT_BT</tspan></text>
</a><text x="90" y="71" class="combo hold">toggle</text>
</g>
<g class="combo combopos-1">
<path d="M90,50 l-41,-14" class="combo"/>
<path d="M90,50 l43,29" class="combo"/>
<rect rx="6" ry="6" x="76" y="37" width="28" height="26" class="combo"/>
<a href="#BASE">
<text x="90" y="50" class="combo tap layer-activator">BASE</text>
</a><text x="90" y="61" class="combo hold">toggle</text>
</g>
<g class="combo combopos-2">
<path d="M90,50 l41,-14" class="combo"/>
<path d="M90,50 l-43,29" class="combo"/>
<rect rx="6" ry="6" x="76" y="37" width="28" height="26" class="combo"/>
<a href="#ROT_90">
<text x="90" y="50" class="combo tap layer-activator">ROT_90</text>
</a><text x="90" y="61" class="combo hold">toggle</text>
</g>
<g class="combo combopos-3">
<path d="M90,70 l-41,14" class="combo"/>
<path d="M90,70 l43,-29" class="combo"/>
<rect rx="6" ry="6" x="76" y="57" width="28" height="26" class="combo"/>
<a href="#ROT_180">
<text x="90" y="70" class="combo tap layer-activator">ROT_180</text>
</a><text x="90" y="81" class="combo hold">toggle</text>
</g>
<g class="combo combopos-4">
<path d="M90,70 l41,14" class="combo"/>
<path d="M90,70 l-43,-29" class="combo"/>
<rect rx="6" ry="6" x="76" y="57" width="28" height="26" class="combo"/>
<a href="#ROT_270">
<text x="90" y="70" class="combo tap layer-activator">ROT_270</text>
</a><text x="90" y="81" class="combo hold">toggle</text>
</g>
</g>
</g>
<g transform="translate(30, 1232)" class="layer-Scroll_L270">
<text x="0" y="28" class="label" id="Scroll_L270">Scroll_L270:</text>
<g transform="translate(0, 56)">
<g transform="translate(150, 90)" class="key trans keypos-0">
<rect rx="6" ry="6" x="-28" y="-28" width="56" height="56" class="key trans"/>
<text x="0" y="0" class="key trans tap">▽</text>
</g>
<g transform="translate(90, 90)" class="key trans keypos-1">
<rect rx="6" ry="6" x="-28" y="-28" width="56" height="56" class="key trans"/>
<text x="0" y="0" class="key trans tap">▽</text>
</g>
<g transform="translate(30, 90)" class="key trans keypos-2">
<rect rx="6" ry="6" x="-28" y="-28" width="56" height="56" class="key trans"/>
<text x="0" y="0" class="key trans tap">▽</text>
</g>
<g transform="translate(150, 30)" class="key held keypos-3">
<rect rx="6" ry="6" x="-28" y="-28" width="56" height="56" class="key held"/>
</g>
<g transform="translate(90, 30)" class="key trans keypos-4">
<rect rx="6" ry="6" x="-28" y="-28" width="56" height="56" class="key trans"/>
<text x="0" y="0" class="key trans tap">▽</text>
</g>
<g transform="translate(30, 30)" class="key trans keypos-5">
<rect rx="6" ry="6" x="-28" y="-28" width="56" height="56" class="key trans"/>
<text x="0" y="0" class="key trans tap">▽</text>
</g>
<g class="combo combopos-0">
<path d="M90,50 l-41,-14" class="combo"/>
<path d="M90,50 l43,29" class="combo"/>
<rect rx="6" ry="6" x="76" y="37" width="28" height="26" class="combo"/>
<a href="#BASE">
<text x="90" y="50" class="combo tap layer-activator">BASE</text>
</a><text x="90" y="61" class="combo hold">toggle</text>
</g>
<g class="combo combopos-1">
<path d="M90,50 l41,-14" class="combo"/>
<path d="M90,50 l-43,29" class="combo"/>
<rect rx="6" ry="6" x="76" y="37" width="28" height="26" class="combo"/>
<a href="#ROT_90">
<text x="90" y="50" class="combo tap layer-activator">ROT_90</text>
</a><text x="90" y="61" class="combo hold">toggle</text>
</g>
<g class="combo combopos-2">
<path d="M90,70 l-41,14" class="combo"/>
<path d="M90,70 l43,-29" class="combo"/>
<rect rx="6" ry="6" x="76" y="57" width="28" height="26" class="combo"/>
<a href="#ROT_180">
<text x="90" y="70" class="combo tap layer-activator">ROT_180</text>
</a><text x="90" y="81" class="combo hold">toggle</text>
</g>
<g class="combo combopos-3">
<path d="M90,70 l41,14" class="combo"/>
<path d="M90,70 l-43,-29" class="combo"/>
<rect rx="6" ry="6" x="76" y="57" width="28" height="26" class="combo"/>
<a href="#ROT_270">
<text x="90" y="70" class="combo tap layer-activator">ROT_270</text>
</a><text x="90" y="81" class="combo hold">toggle</text>
</g>
</g>
</g>
<g transform="translate(30, 1408)" class="layer-SELECT_BT">
<text x="0" y="28" class="label" id="SELECT_BT">SELECT_BT:</text>
<g transform="translate(0, 56)">
<g transform="translate(150, 90)" class="key keypos-0">
<rect rx="6" ry="6" x="-28" y="-28" width="56" height="56" class="key"/>
<text x="0" y="0" class="key tap">
<tspan x="0" dy="-1.2em">BT</tspan><tspan x="0" dy="1.2em">CLR</tspan><tspan x="0" dy="1.2em">ALL</tspan>
</text>
</g>
<g transform="translate(90, 90)" class="key keypos-1">
<rect rx="6" ry="6" x="-28" y="-28" width="56" height="56" class="key"/>
<text x="0" y="0" class="key tap">BT</text>
<text x="0" y="26" class="key hold">4</text>
</g>
<g transform="translate(30, 90)" class="key keypos-2">
<rect rx="6" ry="6" x="-28" y="-28" width="56" height="56" class="key"/>
<text x="0" y="0" class="key tap">BT</text>
<text x="0" y="26" class="key hold">3</text>
</g>
<g transform="translate(150, 30)" class="key keypos-3">
<rect rx="6" ry="6" x="-28" y="-28" width="56" height="56" class="key"/>
<text x="0" y="0" class="key tap">BT</text>
<text x="0" y="26" class="key hold">2</text>
</g>
<g transform="translate(90, 30)" class="key keypos-4">
<rect rx="6" ry="6" x="-28" y="-28" width="56" height="56" class="key"/>
<text x="0" y="0" class="key tap">BT</text>
<text x="0" y="26" class="key hold">1</text>
</g>
<g transform="translate(30, 30)" class="key keypos-5">
<rect rx="6" ry="6" x="-28" y="-28" width="56" height="56" class="key"/>
<text x="0" y="0" class="key tap">BT</text>
<text x="0" y="26" class="key hold">0</text>
</g>
<g class="combo combopos-0">
<path d="M90,50 l-41,-14" class="combo"/>
<path d="M90,50 l43,29" class="combo"/>
<rect rx="6" ry="6" x="76" y="37" width="28" height="26" class="combo"/>
<a href="#BASE">
<text x="90" y="50" class="combo tap layer-activator">BASE</text>
</a><text x="90" y="61" class="combo hold">toggle</text>
</g>
<g class="combo combopos-1">
<path d="M90,50 l41,-14" class="combo"/>
<path d="M90,50 l-43,29" class="combo"/>
<rect rx="6" ry="6" x="76" y="37" width="28" height="26" class="combo"/>
<a href="#ROT_90">
<text x="90" y="50" class="combo tap layer-activator">ROT_90</text>
</a><text x="90" y="61" class="combo hold">toggle</text>
</g>
<g class="combo combopos-2">
<path d="M90,70 l-41,14" class="combo"/>
<path d="M90,70 l43,-29" class="combo"/>
<rect rx="6" ry="6" x="76" y="57" width="28" height="26" class="combo"/>
<a href="#ROT_180">
<text x="90" y="70" class="combo tap layer-activator">ROT_180</text>
</a><text x="90" y="81" class="combo hold">toggle</text>
</g>
<g class="combo combopos-3">
<path d="M90,70 l41,14" class="combo"/>
<path d="M90,70 l-43,-29" class="combo"/>
<rect rx="6" ry="6" x="76" y="57" width="28" height="26" class="combo"/>
<a href="#ROT_270">
<text x="90" y="70" class="combo tap layer-activator">ROT_270</text>
</a><text x="90" y="81" class="combo hold">toggle</text>
</g>
</g>
</g>
<text x="210.0" y="1612.0" class="footer">tiny18 (auto-generated)</text></svg>
