<svg width="240" height="2168" viewBox="0 0 240 2168" class="keymap" xmlns="http://www.w3.org/2000/svg" xmlns:xlink="http://www.w3.org/1999/xlink">
<style>/* inherit to force styles through use tags */
svg path {
    fill: inherit;
}

/* font and background color specifications */
svg.keymap {
    font-family: SFMono-Regular,Consolas,Liberation Mono,Menlo,monospace;
    font-size: 14px;
    font-kerning: normal;
    text-rendering: optimizeLegibility;
    fill: #24292e;
}

/* default key styling */
rect.key {
    fill: #f6f8fa;
}

rect.key, rect.combo {
    stroke: #c9cccf;
    stroke-width: 1;
}

/* default key side styling, only used is draw_key_sides is set */
rect.side {
    filter: brightness(90%);
}

/* color accent for combo boxes */
rect.combo, rect.combo-separate {
    fill: #cdf;
}

/* color accent for held keys */
rect.held, rect.combo.held {
    fill: #fdd;
}

/* color accent for ghost (optional) keys */
rect.ghost, rect.combo.ghost {
    stroke-dasharray: 4, 4;
    stroke-width: 2;
}

text {
    text-anchor: middle;
    dominant-baseline: middle;
}

/* styling for layer labels */
text.label {
    font-weight: bold;
    text-anchor: start;
    stroke: white;
    stroke-width: 4;
    paint-order: stroke;
}

/* styling for optional footer */
text.footer {
    text-anchor: end;
    dominant-baseline: auto;
    stroke: white;
    stroke-width: 4;
    paint-order: stroke;
}

/* styling for combo tap, and key non-tap label text */
text.combo, text.hold, text.shifted, text.left, text.right {
    font-size: 11px;
}

text.hold {
    text-anchor: middle;
    dominant-baseline: auto;
}

text.shifted {
    text-anchor: middle;
    dominant-baseline: hanging;
}

text.left {
    text-anchor: start;
}

text.right {
    text-anchor: end;
}

text.layer-activator {
    text-decoration: underline;
}

/* styling for hold/shifted label text in combo box */
text.combo.hold, text.combo.shifted, text.combo.left, text.combo.right {
    font-size: 8px;
}

/* lighter symbol for transparent keys */
text.trans {
    fill: #7b7e81;
}

/* styling for combo dendrons */
path.combo {
    stroke-width: 1;
    stroke: gray;
    fill: none;
}

/* Start Tabler Icons Cleanup */
/* cannot use height/width with glyphs */
.icon-tabler > path {
    fill: inherit;
    stroke: inherit;
    stroke-width: 2;
}
/* hide tabler's default box */
.icon-tabler > path[stroke="none"][fill="none"] {
    visibility: hidden;
}
/* End Tabler Icons Cleanup */
</style>
<g transform="translate(30, 0)" class="layer-BASE">
<text x="0" y="28" class="label" id="BASE">BASE:</text>
<g transform="translate(0, 56)">
<g transform="translate(150, 90)" class="key keypos-0">
<rect rx="6" ry="6" x="-28" y="-28" width="56" height="56" class="key"/>
<text x="0" y="0" class="key tap">
<tspan x="0" dy="-0.6em">&amp;mkp</tspan><tspan x="0" dy="1.2em">RCLK</tspan>
</text>
</g>
<g transform="translate(90, 90)" class="key keypos-1">
<rect rx="6" ry="6" x="-28" y="-28" width="56" height="56" class="key"/>
<text x="0" y="0" class="key tap">DOWN</text>
<a href="#Scroll_L0-">
<text x="0" y="26" class="key hold layer-activator"><tspan style="font-size: 70%">Scroll_L0 </tspan></text>
</a></g>
<g transform="translate(30, 90)" class="key keypos-2">
<rect rx="6" ry="6" x="-28" y="-28" width="56" height="56" class="key"/>
<text x="0" y="0" class="key tap">
<tspan x="0" dy="-0.6em">&amp;mkp</tspan><tspan x="0" dy="1.2em">LCLK</tspan>
</text>
</g>
<g transform="translate(150, 30)" class="key keypos-3">
<rect rx="6" ry="6" x="-28" y="-28" width="56" height="56" class="key"/>
<text x="0" y="0" class="key tap">RIGHT</text>
</g>
<g transform="translate(90, 30)" class="key keypos-4">
<rect rx="6" ry="6" x="-28" y="-28" width="56" height="56" class="key"/>
<text x="0" y="0" class="key tap">UP</text>
</g>
<g transform="translate(30, 30)" class="key keypos-5">
<rect rx="6" ry="6" x="-28" y="-28" width="56" height="56" class="key"/>
<text x="0" y="0" class="key tap">&amp;td0</text>
</g>
<g class="combo combopos-0">
<path d="M90,60 l-42,-21" class="combo"/>
<path d="M90,60 l42,21" class="combo"/>
<rect rx="6" ry="6" x="76" y="47" width="28" height="26" class="combo"/>
<a href="#SELECT_BT">
<text x="90" y="60" class="combo tap layer-activator"><tspan style="font-size: 78%">SELECT_BT</tspan></text>
</a><text x="90" y="71" class="combo hold">toggle</text>
</g>
<g class="combo combopos-1">
<rect rx="6" ry="6" x="46" y="17" width="28" height="26" class="combo"/>
<text x="60" y="30" class="combo tap">
<tspan x="60" dy="-0.6em">Ctl+PG</tspan><tspan x="60" dy="1.2em">UP</tspan>
</text>
</g>
<g class="combo combopos-2">
<rect rx="6" ry="6" x="106" y="17" width="28" height="26" class="combo"/>
<text x="120" y="30" class="combo tap">
<tspan x="120" dy="-0.6em">Ctl+PG</tspan><tspan x="120" dy="1.2em">DN</tspan>
</text>
</g>
<g class="combo combopos-3">
<rect rx="6" ry="6" x="46" y="77" width="28" height="26" class="combo"/>
<text x="60" y="90" class="combo tap">
<tspan x="60" dy="-0.6em">Ctl+</tspan><tspan x="60" dy="1.2em">HOME</tspan>
</text>
</g>
<g class="combo combopos-4">
<rect rx="6" ry="6" x="106" y="77" width="28" height="26" class="combo"/>
<text x="120" y="90" class="combo tap">Ctl+END</text>
</g>
<g class="combo combopos-5">
<path d="M90,90 l40,0" class="combo"/>
<path d="M90,90 l-40,0" class="combo"/>
<rect rx="6" ry="6" x="76" y="77" width="28" height="26" class="combo"/>
<text x="90" y="90" class="combo tap">&amp;num</text>
</g>
</g>
</g>
<g transform="translate(30, 176)" class="layer-ROT_90">
<text x="0" y="28" class="label" id="ROT_90">ROT_90:</text>
<g transform="translate(0, 56)">
<g transform="translate(150, 90)" class="key keypos-0">
<rect rx="6" ry="6" x="-28" y="-28" width="56" height="56" class="key"/>
<text x="0" y="0" class="key tap">
<tspan x="0" dy="-0.6em">&amp;mkp</tspan><tspan x="0" dy="1.2em">LCLK</tspan>
</text>
</g>
<g transform="translate(90, 90)" class="key keypos-1">
<rect rx="6" ry="6" x="-28" y="-28" width="56" height="56" class="key"/>
<text x="0" y="0" class="key tap">LEFT</text>
</g>
<g transform="translate(30, 90)" class="key keypos-2">
<rect rx="6" ry="6" x="-28" y="-28" width="56" height="56" class="key"/>
<text x="0" y="0" class="key tap">UP</text>
</g>
<g transform="translate(150, 30)" class="key keypos-3">
<rect rx="6" ry="6" x="-28" y="-28" width="56" height="56" class="key"/>
<text x="0" y="0" class="key tap">
<tspan x="0" dy="-0.6em">&amp;mkp</tspan><tspan x="0" dy="1.2em">RCLK</tspan>
</text>
</g>
<g transform="translate(90, 30)" class="key keypos-4">
<rect rx="6" ry="6" x="-28" y="-28" width="56" height="56" class="key"/>
<text x="0" y="0" class="key tap">RIGHT</text>
<a href="#Scroll_L90">
<text x="0" y="26" class="key hold layer-activator"><tspan style="font-size: 70%">Scroll_L90</tspan></text>
</a></g>
<g transform="translate(30, 30)" class="key keypos-5">
<rect rx="6" ry="6" x="-28" y="-28" width="56" height="56" class="key"/>
<text x="0" y="0" class="key tap">DOWN</text>
</g>
<g class="combo combopos-0">
<path d="M90,60 l-42,-21" class="combo"/>
<path d="M90,60 l42,21" class="combo"/>
<rect rx="6" ry="6" x="76" y="47" width="28" height="26" class="combo"/>
<a href="#SELECT_BT">
<text x="90" y="60" class="combo tap layer-activator"><tspan style="font-size: 78%">SELECT_BT</tspan></text>
</a><text x="90" y="71" class="combo hold">toggle</text>
</g>
<g class="combo combopos-1">
<path d="M90,90 l40,0" class="combo"/>
<path d="M90,90 l-40,0" class="combo"/>
<rect rx="6" ry="6" x="76" y="77" width="28" height="26" class="combo"/>
<text x="90" y="90" class="combo tap">&amp;num</text>
</g>
</g>
</g>
<g transform="translate(30, 352)" class="layer-ROT_180">
<text x="0" y="28" class="label" id="ROT_180">ROT_180:</text>
<g transform="translate(0, 56)">
<g transform="translate(150, 90)" class="key keypos-0">
<rect rx="6" ry="6" x="-28" y="-28" width="56" height="56" class="key"/>
<text x="0" y="0" class="key tap">
<tspan x="0" dy="-0.6em">&amp;mkp</tspan><tspan x="0" dy="1.2em">LCLK</tspan>
</text>
</g>
<g transform="translate(90, 90)" class="key keypos-1">
<rect rx="6" ry="6" x="-28" y="-28" width="56" height="56" class="key"/>
<text x="0" y="0" class="key tap">UP</text>
</g>
<g transform="translate(30, 90)" class="key keypos-2">
<rect rx="6" ry="6" x="-28" y="-28" width="56" height="56" class="key"/>
<text x="0" y="0" class="key tap">
<tspan x="0" dy="-0.6em">&amp;mkp</tspan><tspan x="0" dy="1.2em">RCLK</tspan>
</text>
</g>
<g transform="translate(150, 30)" class="key keypos-3">
<rect rx="6" ry="6" x="-28" y="-28" width="56" height="56" class="key"/>
<text x="0" y="0" class="key tap">LEFT</text>
</g>
<g transform="translate(90, 30)" class="key keypos-4">
<rect rx="6" ry="6" x="-28" y="-28" width="56" height="56" class="key"/>
<text x="0" y="0" class="key tap">DOWN</text>
<a href="#Scroll_L180">
<text x="0" y="26" class="key hold layer-activator"><tspan style="font-size: 64%">Scroll_L180</tspan></text>
</a></g>
<g transform="translate(30, 30)" class="key keypos-5">
<rect rx="6" ry="6" x="-28" y="-28" width="56" height="56" class="key"/>
<text x="0" y="0" class="key tap">RIGHT</text>
</g>
<g class="combo combopos-0">
<path d="M90,60 l-42,-21" class="combo"/>
<path d="M90,60 l42,21" class="combo"/>
<rect rx="6" ry="6" x="76" y="47" width="28" height="26" class="combo"/>
<a href="#SELECT_BT">
<text x="90" y="60" class="combo tap layer-activator"><tspan style="font-size: 78%">SELECT_BT</tspan></text>
</a><text x="90" y="71" class="combo hold">toggle</text>
</g>
<g class="combo combopos-1">
<path d="M90,90 l40,0" class="combo"/>
<path d="M90,90 l-40,0" class="combo"/>
<rect rx="6" ry="6" x="76" y="77" width="28" height="26" class="combo"/>
<text x="90" y="90" class="combo tap">&amp;num</text>
</g>
</g>
</g>
<g transform="translate(30, 528)" class="layer-ROT_270">
<text x="0" y="28" class="label" id="ROT_270">ROT_270:</text>
<g transform="translate(0, 56)">
<g transform="translate(150, 90)" class="key keypos-0">
<rect rx="6" ry="6" x="-28" y="-28" width="56" height="56" class="key"/>
<text x="0" y="0" class="key tap">
<tspan x="0" dy="-0.6em">&amp;mkp</tspan><tspan x="0" dy="1.2em">RCLK</tspan>
</text>
</g>
<g transform="translate(90, 90)" class="key keypos-1">
<rect rx="6" ry="6" x="-28" y="-28" width="56" height="56" class="key"/>
<text x="0" y="0" class="key tap">DOWN</text>
</g>
<g transform="translate(30, 90)" class="key keypos-2">
<rect rx="6" ry="6" x="-28" y="-28" width="56" height="56" class="key"/>
<text x="0" y="0" class="key tap">RIGHT</text>
</g>
<g transform="translate(150, 30)" class="key keypos-3">
<rect rx="6" ry="6" x="-28" y="-28" width="56" height="56" class="key"/>
<text x="0" y="0" class="key tap">
<tspan x="0" dy="-0.6em">&amp;mkp</tspan><tspan x="0" dy="1.2em">LCLK</tspan>
</text>
</g>
<g transform="translate(90, 30)" class="key keypos-4">
<rect rx="6" ry="6" x="-28" y="-28" width="56" height="56" class="key"/>
<text x="0" y="0" class="key tap">UP</text>
<a href="#Scroll_L270">
<text x="0" y="26" class="key hold layer-activator"><tspan style="font-size: 64%">Scroll_L270</tspan></text>
</a></g>
<g transform="translate(30, 30)" class="key keypos-5">
<rect rx="6" ry="6" x="-28" y="-28" width="56" height="56" class="key"/>
<text x="0" y="0" class="key tap">LEFT</text>
</g>
<g class="combo combopos-0">
<path d="M90,60 l-42,-21" class="combo"/>
<path d="M90,60 l42,21" class="combo"/>
<rect rx="6" ry="6" x="76" y="47" width="28" height="26" class="combo"/>
<a href="#SELECT_BT">
<text x="90" y="60" class="combo tap layer-activator"><tspan style="font-size: 78%">SELECT_BT</tspan></text>
</a><text x="90" y="71" class="combo hold">toggle</text>
</g>
<g class="combo combopos-1">
<path d="M90,90 l40,0" class="combo"/>
<path d="M90,90 l-40,0" class="combo"/>
<rect rx="6" ry="6" x="76" y="77" width="28" height="26" class="combo"/>
<text x="90" y="90" class="combo tap">&amp;num</text>
</g>
</g>
</g>
<g transform="translate(30, 704)" class="layer-Scroll_L0 ">
<text x="0" y="28" class="label" id="Scroll_L0-">Scroll_L0 :</text>
<g transform="translate(0, 56)">
<g transform="translate(150, 90)" class="key trans keypos-0">
<rect rx="6" ry="6" x="-28" y="-28" width="56" height="56" class="key trans"/>
<text x="0" y="0" class="key trans tap">▽</text>
</g>
<g transform="translate(90, 90)" class="key held keypos-1">
<rect rx="6" ry="6" x="-28" y="-28" width="56" height="56" class="key held"/>
</g>
<g transform="translate(30, 90)" class="key trans keypos-2">
<rect rx="6" ry="6" x="-28" y="-28" width="56" height="56" class="key trans"/>
<text x="0" y="0" class="key trans tap">▽</text>
</g>
<g transform="translate(150, 30)" class="key trans keypos-3">
<rect rx="6" ry="6" x="-28" y="-28" width="56" height="56" class="key trans"/>
<text x="0" y="0" class="key trans tap">▽</text>
</g>
<g transform="translate(90, 30)" class="key keypos-4">
<rect rx="6" ry="6" x="-28" y="-28" width="56" height="56" class="key"/>
<text x="0" y="0" class="key tap">LCTRL</text>
</g>
<g transform="translate(30, 30)" class="key trans keypos-5">
<rect rx="6" ry="6" x="-28" y="-28" width="56" height="56" class="key trans"/>
<text x="0" y="0" class="key trans tap">▽</text>
</g>
<g class="combo combopos-0">
<path d="M90,60 l-42,-21" class="combo"/>
<path d="M90,60 l42,21" class="combo"/>
<rect rx="6" ry="6" x="76" y="47" width="28" height="26" class="combo"/>
<a href="#SELECT_BT">
<text x="90" y="60" class="combo tap layer-activator"><tspan style="font-size: 78%">SELECT_BT</tspan></text>
</a><text x="90" y="71" class="combo hold">toggle</text>
</g>
<g class="combo combopos-1">
<path d="M90,90 l40,0" class="combo"/>
<path d="M90,90 l-40,0" class="combo"/>
<rect rx="6" ry="6" x="76" y="77" width="28" height="26" class="combo"/>
<text x="90" y="90" class="combo tap">&amp;num</text>
</g>
</g>
</g>
<g transform="translate(30, 880)" class="layer-Scroll_L90">
<text x="0" y="28" class="label" id="Scroll_L90">Scroll_L90:</text>
<g transform="translate(0, 56)">
<g transform="translate(150, 90)" class="key keypos-0">
<rect rx="6" ry="6" x="-28" y="-28" width="56" height="56" class="key"/>
<text x="0" y="0" class="key tap">
<tspan x="0" dy="-0.6em">Ctl+</tspan><tspan x="0" dy="1.2em">HOME</tspan>
</text>
</g>
<g transform="translate(90, 90)" class="key keypos-1">
<rect rx="6" ry="6" x="-28" y="-28" width="56" height="56" class="key"/>
<text x="0" y="0" class="key tap">LCTRL</text>
</g>
<g transform="translate(30, 90)" class="key keypos-2">
<rect rx="6" ry="6" x="-28" y="-28" width="56" height="56" class="key"/>
<text x="0" y="0" class="key tap">
<tspan x="0" dy="-0.6em">Ctl+PG</tspan><tspan x="0" dy="1.2em">UP</tspan>
</text>
</g>
<g transform="translate(150, 30)" class="key keypos-3">
<rect rx="6" ry="6" x="-28" y="-28" width="56" height="56" class="key"/>
<text x="0" y="0" class="key tap">Ctl+END</text>
</g>
<g transform="translate(90, 30)" class="key held keypos-4">
<rect rx="6" ry="6" x="-28" y="-28" width="56" height="56" class="key held"/>
</g>
<g transform="translate(30, 30)" class="key keypos-5">
<rect rx="6" ry="6" x="-28" y="-28" width="56" height="56" class="key"/>
<text x="0" y="0" class="key tap">
<tspan x="0" dy="-0.6em">Ctl+PG</tspan><tspan x="0" dy="1.2em">DN</tspan>
</text>
</g>
<g class="combo combopos-0">
<path d="M90,60 l-42,-21" class="combo"/>
<path d="M90,60 l42,21" class="combo"/>
<rect rx="6" ry="6" x="76" y="47" width="28" height="26" class="combo"/>
<a href="#SELECT_BT">
<text x="90" y="60" class="combo tap layer-activator"><tspan style="font-size: 78%">SELECT_BT</tspan></text>
</a><text x="90" y="71" class="combo hold">toggle</text>
</g>
<g class="combo combopos-1">
<path d="M90,90 l40,0" class="combo"/>
<path d="M90,90 l-40,0" class="combo"/>
<rect rx="6" ry="6" x="76" y="77" width="28" height="26" class="combo"/>
<text x="90" y="90" class="combo tap">&amp;num</text>
</g>
</g>
</g>
<g transform="translate(30, 1056)" class="layer-Scroll_L180">
<text x="0" y="28" class="label" id="Scroll_L180">Scroll_L180:</text>
<g transform="translate(0, 56)">
<g transform="translate(150, 90)" class="key keypos-0">
<rect rx="6" ry="6" x="-28" y="-28" width="56" height="56" class="key"/>
<text x="0" y="0" class="key tap">
<tspan x="0" dy="-0.6em">Ctl+PG</tspan><tspan x="0" dy="1.2em">UP</tspan>
</text>
</g>
<g transform="translate(90, 90)" class="key keypos-1">
<rect rx="6" ry="6" x="-28" y="-28" width="56" height="56" class="key"/>
<text x="0" y="0" class="key tap">LCTRL</text>
</g>
<g transform="translate(30, 90)" class="key keypos-2">
<rect rx="6" ry="6" x="-28" y="-28" width="56" height="56" class="key"/>
<text x="0" y="0" class="key tap">
<tspan x="0" dy="-0.6em">Ctl+PG</tspan><tspan x="0" dy="1.2em">DN</tspan>
</text>
</g>
<g transform="translate(150, 30)" class="key keypos-3">
<rect rx="6" ry="6" x="-28" y="-28" width="56" height="56" class="key"/>
<text x="0" y="0" class="key tap">
<tspan x="0" dy="-0.6em">Ctl+</tspan><tspan x="0" dy="1.2em">HOME</tspan>
</text>
</g>
<g transform="translate(90, 30)" class="key held keypos-4">
<rect rx="6" ry="6" x="-28" y="-28" width="56" height="56" class="key held"/>
</g>
<g transform="translate(30, 30)" class="key keypos-5">
<rect rx="6" ry="6" x="-28" y="-28" width="56" height="56" class="key"/>
<text x="0" y="0" class="key tap">Ctl+END</text>
</g>
<g class="combo combopos-0">
<path d="M90,60 l-42,-21" class="combo"/>
<path d="M90,60 l42,21" class="combo"/>
<rect rx="6" ry="6" x="76" y="47" width="28" height="26" class="combo"/>
<a href="#SELECT_BT">
<text x="90" y="60" class="combo tap layer-activator"><tspan style="font-size: 78%">SELECT_BT</tspan></text>
</a><text x="90" y="71" class="combo hold">toggle</text>
</g>
<g class="combo combopos-1">
<path d="M90,90 l40,0" class="combo"/>
<path d="M90,90 l-40,0" class="combo"/>
<rect rx="6" ry="6" x="76" y="77" width="28" height="26" class="combo"/>
<text x="90" y="90" class="combo tap">&amp;num</text>
</g>
</g>
</g>
<g transform="translate(30, 1232)" class="layer-Scroll_L270">
<text x="0" y="28" class="label" id="Scroll_L270">Scroll_L270:</text>
<g transform="translate(0, 56)">
<g transform="translate(150, 90)" class="key keypos-0">
<rect rx="6" ry="6" x="-28" y="-28" width="56" height="56" class="key"/>
<text x="0" y="0" class="key tap">
<tspan x="0" dy="-0.6em">Ctl+PG</tspan><tspan x="0" dy="1.2em">DN</tspan>
</text>
</g>
<g transform="translate(90, 90)" class="key keypos-1">
<rect rx="6" ry="6" x="-28" y="-28" width="56" height="56" class="key"/>
<text x="0" y="0" class="key tap">LCTRL</text>
</g>
<g transform="translate(30, 90)" class="key keypos-2">
<rect rx="6" ry="6" x="-28" y="-28" width="56" height="56" class="key"/>
<text x="0" y="0" class="key tap">Ctl+END</text>
</g>
<g transform="translate(150, 30)" class="key keypos-3">
<rect rx="6" ry="6" x="-28" y="-28" width="56" height="56" class="key"/>
<text x="0" y="0" class="key tap">
<tspan x="0" dy="-0.6em">Ctl+PG</tspan><tspan x="0" dy="1.2em">UP</tspan>
</text>
</g>
<g transform="translate(90, 30)" class="key held keypos-4">
<rect rx="6" ry="6" x="-28" y="-28" width="56" height="56" class="key held"/>
</g>
<g transform="translate(30, 30)" class="key keypos-5">
<rect rx="6" ry="6" x="-28" y="-28" width="56" height="56" class="key"/>
<text x="0" y="0" class="key tap">
<tspan x="0" dy="-0.6em">Ctl+</tspan><tspan x="0" dy="1.2em">HOME</tspan>
</text>
</g>
<g class="combo combopos-0">
<path d="M90,60 l-42,-21" class="combo"/>
<path d="M90,60 l42,21" class="combo"/>
<rect rx="6" ry="6" x="76" y="47" width="28" height="26" class="combo"/>
<a href="#SELECT_BT">
<text x="90" y="60" class="combo tap layer-activator"><tspan style="font-size: 78%">SELECT_BT</tspan></text>
</a><text x="90" y="71" class="combo hold">toggle</text>
</g>
<g class="combo combopos-1">
<path d="M90,90 l40,0" class="combo"/>
<path d="M90,90 l-40,0" class="combo"/>
<rect rx="6" ry="6" x="76" y="77" width="28" height="26" class="combo"/>
<text x="90" y="90" class="combo tap">&amp;num</text>
</g>
</g>
</g>
<g transform="translate(30, 1408)" class="layer-SELECT_BT">
<text x="0" y="28" class="label" id="SELECT_BT">SELECT_BT:</text>
<g transform="translate(0, 56)">
<g transform="translate(150, 90)" class="key keypos-0">
<rect rx="6" ry="6" x="-28" y="-28" width="56" height="56" class="key"/>
<text x="0" y="0" class="key tap">BT</text>
<text x="0" y="26" class="key hold">2</text>
</g>
<g transform="translate(90, 90)" class="key keypos-1">
<rect rx="6" ry="6" x="-28" y="-28" width="56" height="56" class="key"/>
<text x="0" y="0" class="key tap">BT</text>
<text x="0" y="26" class="key hold">1</text>
</g>
<g transform="translate(30, 90)" class="key keypos-2">
<rect rx="6" ry="6" x="-28" y="-28" width="56" height="56" class="key"/>
<text x="0" y="0" class="key tap">BT</text>
<text x="0" y="26" class="key hold">0</text>
</g>
<g transform="translate(150, 30)" class="key keypos-3">
<rect rx="6" ry="6" x="-28" y="-28" width="56" height="56" class="key"/>
<text x="0" y="0" class="key tap"><tspan style="font-size: 64%">&amp;bootloader</tspan></text>
</g>
<g transform="translate(90, 30)" class="key keypos-4">
<rect rx="6" ry="6" x="-28" y="-28" width="56" height="56" class="key"/>
<text x="0" y="0" class="key tap">
<tspan x="0" dy="-0.6em">BT</tspan><tspan x="0" dy="1.2em">CLR</tspan>
</text>
</g>
<g transform="translate(30, 30)" class="key keypos-5">
<rect rx="6" ry="6" x="-28" y="-28" width="56" height="56" class="key"/>
<text x="0" y="0" class="key tap">
<tspan x="0" dy="-1.2em">BT</tspan><tspan x="0" dy="1.2em">CLR</tspan><tspan x="0" dy="1.2em">ALL</tspan>
</text>
</g>
<g class="combo combopos-0">
<path d="M90,60 l-42,-21" class="combo"/>
<path d="M90,60 l42,21" class="combo"/>
<rect rx="6" ry="6" x="76" y="47" width="28" height="26" class="combo"/>
<a href="#SELECT_BT">
<text x="90" y="60" class="combo tap layer-activator"><tspan style="font-size: 78%">SELECT_BT</tspan></text>
</a><text x="90" y="71" class="combo hold">toggle</text>
</g>
<g class="combo combopos-1">
<path d="M90,90 l40,0" class="combo"/>
<path d="M90,90 l-40,0" class="combo"/>
<rect rx="6" ry="6" x="76" y="77" width="28" height="26" class="combo"/>
<text x="90" y="90" class="combo tap">&amp;num</text>
</g>
</g>
</g>
<g transform="translate(30, 1584)" class="layer-NUM">
<text x="0" y="28" class="label" id="NUM">NUM:</text>
<g transform="translate(0, 56)">
<g transform="translate(150, 90)" class="key keypos-0">
<rect rx="6" ry="6" x="-28" y="-28" width="56" height="56" class="key"/>
<text x="0" y="0" class="key tap">
<tspan x="0" dy="-1.2em">KP</tspan><tspan x="0" dy="1.2em">3</tspan>
</text>
<a href="#x_x">
<text x="0" y="26" class="key hold layer-activator">10</text>
</a></g>
<g transform="translate(90, 90)" class="key keypos-1">
<rect rx="6" ry="6" x="-28" y="-28" width="56" height="56" class="key"/>
<text x="0" y="0" class="key tap">
<tspan x="0" dy="-0.6em">KP</tspan><tspan x="0" dy="1.2em">2</tspan>
</text>
</g>
<g transform="translate(30, 90)" class="key keypos-2">
<rect rx="6" ry="6" x="-28" y="-28" width="56" height="56" class="key"/>
<text x="0" y="0" class="key tap">
<tspan x="0" dy="-0.6em">KP</tspan><tspan x="0" dy="1.2em">1</tspan>
</text>
</g>
<g transform="translate(150, 30)" class="key keypos-3">
<rect rx="6" ry="6" x="-28" y="-28" width="56" height="56" class="key"/>
<text x="0" y="0" class="key tap">
<tspan x="0" dy="-0.6em">KP</tspan><tspan x="0" dy="1.2em">6</tspan>
</text>
</g>
<g transform="translate(90, 30)" class="key keypos-4">
<rect rx="6" ry="6" x="-28" y="-28" width="56" height="56" class="key"/>
<text x="0" y="0" class="key tap">
<tspan x="0" dy="-0.6em">KP</tspan><tspan x="0" dy="1.2em">5</tspan>
</text>
</g>
<g transform="translate(30, 30)" class="key keypos-5">
<rect rx="6" ry="6" x="-28" y="-28" width="56" height="56" class="key"/>
<text x="0" y="0" class="key tap">&amp;td4</text>
</g>
<g class="combo combopos-0">
<path d="M90,60 l-42,-21" class="combo"/>
<path d="M90,60 l42,21" class="combo"/>
<rect rx="6" ry="6" x="76" y="47" width="28" height="26" class="combo"/>
<a href="#SELECT_BT">
<text x="90" y="60" class="combo tap layer-activator"><tspan style="font-size: 78%">SELECT_BT</tspan></text>
</a><text x="90" y="71" class="combo hold">toggle</text>
</g>
<g class="combo combopos-1">
<rect rx="6" ry="6" x="16" y="47" width="28" height="26" class="combo"/>
<text x="30" y="60" class="combo tap">
<tspan x="30" dy="-0.6em">KP</tspan><tspan x="30" dy="1.2em">7</tspan>
</text>
</g>
<g class="combo combopos-2">
<rect rx="6" ry="6" x="76" y="47" width="28" height="26" class="combo"/>
<text x="90" y="60" class="combo tap">
<tspan x="90" dy="-0.6em">KP</tspan><tspan x="90" dy="1.2em">8</tspan>
</text>
</g>
<g class="combo combopos-3">
<rect rx="6" ry="6" x="136" y="47" width="28" height="26" class="combo"/>
<text x="150" y="60" class="combo tap">
<tspan x="150" dy="-0.6em">KP</tspan><tspan x="150" dy="1.2em">9</tspan>
</text>
</g>
<g class="combo combopos-4">
<path d="M90,90 l40,0" class="combo"/>
<path d="M90,90 l-40,0" class="combo"/>
<rect rx="6" ry="6" x="76" y="77" width="28" height="26" class="combo"/>
<text x="90" y="90" class="combo tap">&amp;num</text>
</g>
<g class="combo combopos-5">
<rect rx="6" ry="6" x="46" y="17" width="28" height="26" class="combo"/>
<text x="60" y="30" class="combo tap">0</text>
</g>
<g class="combo combopos-6">
<rect rx="6" ry="6" x="106" y="17" width="28" height="26" class="combo"/>
<text x="120" y="30" class="combo tap">ENTER</text>
</g>
<g class="combo combopos-7">
<rect rx="6" ry="6" x="46" y="77" width="28" height="26" class="combo"/>
<text x="60" y="90" class="combo tap">,</text>
</g>
<g class="combo combopos-8">
<rect rx="6" ry="6" x="106" y="77" width="28" height="26" class="combo"/>
<text x="120" y="90" class="combo tap">.</text>
</g>
<g class="combo combopos-9">
<path d="M90,60 l42,-21" class="combo"/>
<path d="M90,60 l-42,21" class="combo"/>
<rect rx="6" ry="6" x="76" y="47" width="28" height="26" class="combo"/>
<text x="90" y="60" class="combo tap"><tspan style="font-size: 78%">BACKSPACE</tspan></text>
</g>
</g>
</g>
<g transform="translate(30, 1760)" class="layer-10">
<text x="0" y="28" class="label" id="x_x">10:</text>
<g transform="translate(0, 56)">
<g transform="translate(150, 90)" class="key held keypos-0">
<rect rx="6" ry="6" x="-28" y="-28" width="56" height="56" class="key held"/>
</g>
<g transform="translate(90, 90)" class="key keypos-1">
<rect rx="6" ry="6" x="-28" y="-28" width="56" height="56" class="key"/>
<text x="0" y="0" class="key tap">/</text>
</g>
<g transform="translate(30, 90)" class="key keypos-2">
<rect rx="6" ry="6" x="-28" y="-28" width="56" height="56" class="key"/>
<text x="0" y="0" class="key tap">&quot;</text>
</g>
<g transform="translate(150, 30)" class="key keypos-3">
<rect rx="6" ry="6" x="-28" y="-28" width="56" height="56" class="key"/>
<text x="0" y="0" class="key tap">_</text>
</g>
<g transform="translate(90, 30)" class="key keypos-4">
<rect rx="6" ry="6" x="-28" y="-28" width="56" height="56" class="key"/>
<text x="0" y="0" class="key tap">-</text>
</g>
<g transform="translate(30, 30)" class="key keypos-5">
<rect rx="6" ry="6" x="-28" y="-28" width="56" height="56" class="key"/>
<text x="0" y="0" class="key tap">:</text>
</g>
<g class="combo combopos-0">
<path d="M90,60 l-42,-21" class="combo"/>
<path d="M90,60 l42,21" class="combo"/>
<rect rx="6" ry="6" x="76" y="47" width="28" height="26" class="combo"/>
<a href="#SELECT_BT">
<text x="90" y="60" class="combo tap layer-activator"><tspan style="font-size: 78%">SELECT_BT</tspan></text>
</a><text x="90" y="71" class="combo hold">toggle</text>
</g>
<g class="combo combopos-1">
<path d="M90,90 l40,0" class="combo"/>
<path d="M90,90 l-40,0" class="combo"/>
<rect rx="6" ry="6" x="76" y="77" width="28" height="26" class="combo"/>
<text x="90" y="90" class="combo tap">&amp;num</text>
</g>
</g>
</g>
<g transform="translate(30, 1936)" class="layer-11">
<text x="0" y="28" class="label" id="x_x">11:</text>
<g transform="translate(0, 56)">
<g transform="translate(150, 90)" class="key keypos-0">
<rect rx="6" ry="6" x="-28" y="-28" width="56" height="56" class="key"/>
<text x="0" y="0" class="key tap">.</text>
</g>
<g transform="translate(90, 90)" class="key keypos-1">
<rect rx="6" ry="6" x="-28" y="-28" width="56" height="56" class="key"/>
<text x="0" y="0" class="key tap">,</text>
</g>
<g transform="translate(30, 90)" class="key trans keypos-2">
<rect rx="6" ry="6" x="-28" y="-28" width="56" height="56" class="key trans"/>
<text x="0" y="0" class="key trans tap">▽</text>
</g>
<g transform="translate(150, 30)" class="key keypos-3">
<rect rx="6" ry="6" x="-28" y="-28" width="56" height="56" class="key"/>
<text x="0" y="0" class="key tap">ENTER</text>
</g>
<g transform="translate(90, 30)" class="key keypos-4">
<rect rx="6" ry="6" x="-28" y="-28" width="56" height="56" class="key"/>
<text x="0" y="0" class="key tap">=</text>
</g>
<g transform="translate(30, 30)" class="key trans keypos-5">
<rect rx="6" ry="6" x="-28" y="-28" width="56" height="56" class="key trans"/>
<text x="0" y="0" class="key trans tap">▽</text>
</g>
<g class="combo combopos-0">
<path d="M90,60 l-42,-21" class="combo"/>
<path d="M90,60 l42,21" class="combo"/>
<rect rx="6" ry="6" x="76" y="47" width="28" height="26" class="combo"/>
<a href="#SELECT_BT">
<text x="90" y="60" class="combo tap layer-activator"><tspan style="font-size: 78%">SELECT_BT</tspan></text>
</a><text x="90" y="71" class="combo hold">toggle</text>
</g>
<g class="combo combopos-1">
<path d="M90,90 l40,0" class="combo"/>
<path d="M90,90 l-40,0" class="combo"/>
<rect rx="6" ry="6" x="76" y="77" width="28" height="26" class="combo"/>
<text x="90" y="90" class="combo tap">&amp;num</text>
</g>
</g>
</g>
<text x="210.0" y="2140.0" class="footer">tiny18 (auto-generated)</text></svg>
